<svg width="202" height="160" viewBox="0 0 202 160" fill="none" xmlns="http://www.w3.org/2000/svg">
<path d="M86 142C102.5 122.5 105 95.5 79.125 75C63.7876 62.8487 36.375 75 36.375 75C36.375 47.4375 55.5377 25.0001 79.125 25.0001V0.000117779C43.7654 0.000117779 7.5 33.5 1.5 72.5C1.5 72.5 -5.5 123 18.5 144.5C45.0907 168.321 69.5 161.5 86 142Z" fill="black"/>
<path d="M189.45 142C205.95 122.5 208.45 95.4999 182.575 74.9999C167.238 62.8486 139.825 74.9999 139.825 74.9999C139.825 47.4374 158.988 25 182.575 25V-4.29153e-06C147.216 -4.29153e-06 110.95 33.4999 104.95 72.4999C104.95 72.4999 97.9501 123 121.95 144.5C148.541 168.321 172.95 161.5 189.45 142Z" fill="black"/>
</svg>
