<svg width="350" height="251" viewBox="0 0 350 251" fill="none" xmlns="http://www.w3.org/2000/svg">
<mask id="path-1-inside-1" fill="white">
<rect width="350" height="251" rx="10"/>
</mask>
<rect width="350" height="251" rx="10" stroke="black" stroke-width="30" mask="url(#path-1-inside-1)"/>
<path d="M64.35 208.911H197.309C206.958 208.911 214.809 201.06 214.809 191.411V58.451C214.809 48.802 206.958 40.951 197.309 40.951H64.35C54.701 40.951 46.85 48.802 46.85 58.451V191.411C46.85 201.061 54.701 208.911 64.35 208.911ZM61.85 58.451C61.85 57.072 62.972 55.951 64.35 55.951H197.309C198.687 55.951 199.809 57.072 199.809 58.451V191.411C199.809 192.79 198.687 193.911 197.309 193.911H64.35C62.972 193.911 61.85 192.79 61.85 191.411V58.451Z" fill="black"/>
<path d="M101.632 181.89C105.772 181.89 109.142 178.53 109.142 174.4V158.2C109.162 146.291 118.841 136.573 130.738 136.502C130.769 136.502 130.799 136.504 130.83 136.504C130.862 136.504 130.893 136.502 130.924 136.502C142.822 136.572 152.502 146.29 152.522 158.2V166.899H136.632C132.502 166.899 129.132 170.259 129.132 174.399C129.132 178.529 132.502 181.899 136.632 181.899C136.642 181.899 136.652 181.899 136.652 181.889H160.022C161.992 181.889 163.932 181.089 165.322 179.7C166.722 178.3 167.522 176.37 167.522 174.399V158.2C167.522 148.389 163.702 139.179 156.772 132.25C155.465 130.943 154.077 129.747 152.619 128.667C160.236 122.376 165.099 112.864 165.099 102.237C165.099 83.341 149.726 67.967 130.83 67.967C111.934 67.967 96.561 83.34 96.561 102.237C96.561 112.863 101.423 122.375 109.039 128.666C107.58 129.747 106.19 130.943 104.882 132.251C97.952 139.181 94.142 148.391 94.142 158.201V174.4C94.142 176.371 94.942 178.3 96.332 179.701C97.732 181.09 99.662 181.89 101.632 181.89ZM130.83 82.967C141.455 82.967 150.099 91.612 150.099 102.237C150.099 112.84 141.49 121.466 130.895 121.502C130.874 121.502 130.853 121.501 130.832 121.501C130.81 121.501 130.788 121.502 130.766 121.503C120.171 121.468 111.561 112.841 111.561 102.238C111.561 91.611 120.205 82.967 130.83 82.967Z" fill="black"/>
<path d="M237.969 92.567H304.257C308.399 92.567 311.757 89.21 311.757 85.067C311.757 80.924 308.399 77.567 304.257 77.567H237.969C233.827 77.567 230.469 80.924 230.469 85.067C230.469 89.21 233.827 92.567 237.969 92.567Z" fill="black"/>
<path d="M237.969 135.088H304.257C308.399 135.088 311.757 131.731 311.757 127.588C311.757 123.445 308.399 120.088 304.257 120.088H237.969C233.827 120.088 230.469 123.445 230.469 127.588C230.469 131.731 233.827 135.088 237.969 135.088Z" fill="black"/>
<path d="M237.969 180.441H304.257C308.399 180.441 311.757 177.084 311.757 172.941C311.757 168.798 308.399 165.441 304.257 165.441H237.969C233.827 165.441 230.469 168.798 230.469 172.941C230.469 177.084 233.827 180.441 237.969 180.441Z" fill="black"/>
</svg>
