<svg width="124" height="23" viewBox="0 0 124 23" fill="none" xmlns="http://www.w3.org/2000/svg">
<path d="M10 9.5L12 5L14 9.5L20 10L15.5 13.5L16.5 19L12 16.5L6.5 20L8.5 13.5L4 10L10 9.5Z" fill="#FFC107"/>
<path d="M12 5.10938L13.543 8.74219L14.0156 9.84375L15.2109 9.94922L19.1406 10.2969L16.1641 12.8867L15.2578 13.6758L15.5273 14.8438L16.4141 18.6914L13.0273 16.6602L12 16.043L10.9727 16.6602L7.58594 18.6914L8.47266 14.8438L8.74219 13.6758L7.83594 12.8867L4.85938 10.2969L8.78906 9.95312L9.98438 9.84766L10.457 8.74219L12 5.10938ZM12 0L8.61328 7.96094L0 8.71875L6.52344 14.3984L4.58594 22.8242L12 18.3789L19.4141 22.8281L17.4766 14.3984L24 8.71875L15.3867 7.96094L12 0Z" fill="#FFC107"/>
<path d="M10 9.5L12 5L14 9.5L20 10L15.5 13.5L16.5 19L12 16.5L6.5 20L8.5 13.5L4 10L10 9.5Z" fill="#FFC107"/>
<path d="M12 5.10938L13.543 8.74219L14.0156 9.84375L15.2109 9.94922L19.1406 10.2969L16.1641 12.8867L15.2578 13.6758L15.5273 14.8438L16.4141 18.6914L13.0273 16.6602L12 16.043L10.9727 16.6602L7.58594 18.6914L8.47266 14.8438L8.74219 13.6758L7.83594 12.8867L4.85938 10.2969L8.78906 9.95312L9.98438 9.84766L10.457 8.74219L12 5.10938ZM12 0L8.61328 7.96094L0 8.71875L6.52344 14.3984L4.58594 22.8242L12 18.3789L19.4141 22.8281L17.4766 14.3984L24 8.71875L15.3867 7.96094L12 0Z" fill="#FFC107"/>
<path d="M60 9.5L62 5L64 9.5L70 10L65.5 13.5L66.5 19L62 16.5L56.5 20L58.5 13.5L54 10L60 9.5Z" fill="#FFC107"/>
<path d="M62 5.10938L63.543 8.74219L64.0156 9.84375L65.2109 9.94922L69.1406 10.2969L66.1641 12.8867L65.2578 13.6758L65.5273 14.8438L66.4141 18.6914L63.0273 16.6602L62 16.043L60.9727 16.6602L57.5859 18.6914L58.4727 14.8438L58.7422 13.6758L57.8359 12.8867L54.8594 10.2969L58.7891 9.95312L59.9844 9.84766L60.457 8.74219L62 5.10938ZM62 0L58.6133 7.96094L50 8.71875L56.5234 14.3984L54.5859 22.8242L62 18.3789L69.4141 22.8281L67.4766 14.3984L74 8.71875L65.3867 7.96094L62 0Z" fill="#FFC107"/>
<path d="M85 9.5L87 5L89 9.5L95 10L90.5 13.5L91.5 19L87 16.5L81.5 20L83.5 13.5L79 10L85 9.5Z" fill="#FFC107"/>
<path d="M87 5.10938L88.543 8.74219L89.0156 9.84375L90.2109 9.94922L94.1406 10.2969L91.1641 12.8867L90.2578 13.6758L90.5273 14.8438L91.4141 18.6914L88.0273 16.6602L87 16.043L85.9727 16.6602L82.5859 18.6914L83.4727 14.8438L83.7422 13.6758L82.8359 12.8867L79.8594 10.2969L83.7891 9.95312L84.9844 9.84766L85.457 8.74219L87 5.10938ZM87 0L83.6133 7.96094L75 8.71875L81.5234 14.3984L79.5859 22.8242L87 18.3789L94.4141 22.8281L92.4766 14.3984L99 8.71875L90.3867 7.96094L87 0Z" fill="#FFC107"/>
<path d="M35 9.5L37 5L39 9.5L45 10L40.5 13.5L41.5 19L37 16.5L31.5 20L33.5 13.5L29 10L35 9.5Z" fill="#FFC107"/>
<path d="M37 5.10938L38.543 8.74219L39.0156 9.84375L40.2109 9.94922L44.1406 10.2969L41.1641 12.8867L40.2578 13.6758L40.5273 14.8438L41.4141 18.6914L38.0273 16.6602L37 16.043L35.9727 16.6602L32.5859 18.6914L33.4727 14.8438L33.7422 13.6758L32.8359 12.8867L29.8594 10.2969L33.7891 9.95312L34.9844 9.84766L35.457 8.74219L37 5.10938ZM37 0L33.6133 7.96094L25 8.71875L31.5234 14.3984L29.5859 22.8242L37 18.3789L44.4141 22.8281L42.4766 14.3984L49 8.71875L40.3867 7.96094L37 0Z" fill="#FFC107"/>
<path d="M112 5.10938L113.543 8.74219L114.016 9.84375L115.211 9.94922L119.141 10.2969L116.164 12.8867L115.258 13.6758L115.527 14.8438L116.414 18.6914L113.027 16.6602L112 16.043L110.973 16.6602L107.586 18.6914L108.473 14.8438L108.742 13.6758L107.836 12.8867L104.859 10.2969L108.789 9.95312L109.984 9.84766L110.457 8.74219L112 5.10938ZM112 0L108.613 7.96094L100 8.71875L106.523 14.3984L104.586 22.8242L112 18.3789L119.414 22.8281L117.477 14.3984L124 8.71875L115.387 7.96094L112 0Z" fill="#FFC107"/>
</svg>
